<svg xmlns="http://www.w3.org/2000/svg" version="1.1" xmlns:xlink="http://www.w3.org/1999/xlink" xmlns:svgjs="http://svgjs.dev/svgjs" viewBox="0 0 800 800" opacity="1"><defs><symbol id="bbburst-shape-1" viewBox="0 0 194 167"><path d="m97 0 96.129 166.5H.871L97 0Z"></path></symbol><symbol id="bbburst-shape-4" viewBox="0 0 149 143"><path d="M71.647 2.781c.898-2.764 4.808-2.764 5.706 0l15.445 47.534a3 3 0 0 0 2.853 2.073h49.98c2.906 0 4.115 3.719 1.764 5.427L106.96 87.193a2.999 2.999 0 0 0-1.09 3.354l15.445 47.534c.898 2.764-2.266 5.062-4.617 3.354l-40.435-29.378a3 3 0 0 0-3.526 0l-40.435 29.378c-2.351 1.708-5.515-.59-4.617-3.354L43.13 90.547a3 3 0 0 0-1.09-3.354L1.605 57.815c-2.35-1.708-1.142-5.427 1.764-5.427h49.98a3 3 0 0 0 2.853-2.073L71.647 2.781Z"></path></symbol><symbol id="bbburst-shape-6" viewBox="0 0 133 116"><path d="M59.7487 10.2513c-13.6683-13.66839-35.8291-13.66839-49.4974 0-13.66839 13.6683-13.66839 35.8291 0 49.4974l49.4974-49.4974ZM66.5 66.5 41.7513 91.2487 66.5 115.997l24.7487-24.7483L66.5 66.5Zm56.249-6.7513c13.668-13.6683 13.668-35.8291 0-49.4974-13.669-13.66839-35.8294-13.66839-49.4977 0l49.4977 49.4974Zm-112.4977 0 31.5 31.5 49.4974-49.4974-31.5-31.5-49.4974 49.4974Zm80.9974 31.5 31.5003-31.5-49.4977-49.4974-31.5 31.5 49.4974 49.4974Z"></path></symbol><symbol id="bbburst-shape-8" viewBox="0 0 87 168"><path d="m12 12 31.2546 18.0749c16.4102 9.4902 20.014 31.6325 7.4603 45.8369L36.3296 92.1884c-12.5684 14.2206-8.9394 36.3916 7.5068 45.8636L75 156" stroke-width="14" stroke-linecap="round" stroke-linejoin="round"></path></symbol><symbol id="bbburst-shape-9" viewBox="0 0 182 172"><path d="M13.5809 69.845 91 13.5967l77.419 56.2483-29.571 91.012H43.1524L13.5809 69.845Z" stroke-width="22"></path></symbol><symbol id="bbburst-shape-10" viewBox="0 0 145 145"><circle cx="72.5" cy="72.5" r="61.5" fill="none" stroke-width="22"></circle></symbol><symbol id="bbburst-shape-11" viewBox="0 0 194 167"><path d="M10.398 161 97 11l86.603 150H10.397Z" stroke-width="11"></path></symbol><symbol id="bbburst-shape-12" viewBox="0 0 170 151"><path d="M69.3728 54.2122 85 10.0031l15.627 44.2091c1.413 3.9958 5.19 6.6672 9.428 6.6673h49.312l-39.149 26.1447c-3.803 2.5401-5.399 7.3367-3.875 11.6488l15.179 42.94-40.9683-27.36c-3.3621-2.245-7.7453-2.245-11.1074 0l-40.9682 27.36 15.1785-42.94c1.5243-4.3121-.0712-9.1087-3.8746-11.6488L10.6333 60.8795h49.3112c4.2381-.0001 8.0159-2.6715 9.4283-6.6673Z" stroke-width="12"></path></symbol><symbol id="bbburst-shape-14" viewBox="0 0 185 109"><path d="M168 16.5C168 58.1975 134.197 92 92.5 92 50.8025 92 17 58.1975 17 16.5" stroke-width="33" stroke-linecap="round"></path></symbol></defs><use xlink:href="#bbburst-shape-9" width="8.525694573303934" opacity="0.9158787321961446" transform="matrix(0.9807725827882856,-0.19515414638381473,0.19515414638381473,0.9807725827882856,-24.88197323427635,346.94524863724826)" fill="none" stroke="#ffa6d5"></use><use xlink:href="#bbburst-shape-8" width="15.997863516790161" opacity="0.8236485132432461" transform="matrix(0.9778359864921141,-0.20937235615284547,0.20937235615284547,0.9778359864921141,27.9711423760872,280.8884541171801)" fill="none" stroke="#ffa6d5"></use><use xlink:href="#bbburst-shape-8" width="15.993690913005292" opacity="0.755892851713793" transform="matrix(0.9995538982862887,0.029866443053760378,-0.029866443053760378,0.9995538982862887,77.60866914056291,167.2097475681714)" fill="none" stroke="#ffa6d5"></use><use xlink:href="#bbburst-shape-4" width="11.688037235929162" opacity="0.87683376081139" transform="matrix(0.9113029301630694,0.4117365291982286,-0.4117365291982286,0.9113029301630694,274.69502211618163,389.85255554446115)" fill="#00a19d"></use><use xlink:href="#bbburst-shape-10" width="35.202359338374464" opacity="0.28071032482535196" transform="matrix(0.9997727033695284,0.021319981172245275,-0.021319981172245275,0.9997727033695284,244.42308901836432,-273.42570037585807)" fill="none" stroke="#00a19d"></use><use xlink:href="#bbburst-shape-8" width="8.551499033265705" opacity="0.9307436553442899" transform="matrix(0.9980743790127633,0.0620284931163642,-0.0620284931163642,0.9980743790127633,88.73694319537547,388.4158827093854)" fill="none" stroke="#ffa6d5"></use><use xlink:href="#bbburst-shape-10" width="8.28047241865017" opacity="0.9597539058890371" transform="matrix(0.9931343272573637,-0.11697951967358845,0.11697951967358845,0.9931343272573637,-20.581515722986943,376.76706537993164)" fill="none" stroke="#ff5c58"></use><use xlink:href="#bbburst-shape-6" width="10.444524211923703" opacity="0.7924743786355977" transform="matrix(0.9619566131795199,0.27320225906860196,-0.27320225906860196,0.9619566131795199,118.11917364300116,206.72859692979614)" fill="#ffbd9b"></use><use xlink:href="#bbburst-shape-8" width="49.25567846222311" opacity="0.3097830032968424" transform="matrix(0.9035641009942281,0.42845293253109185,-0.42845293253109185,0.9035641009942281,774.6055704456196,136.17025245323424)" fill="none" stroke="#ffa6d5"></use><use xlink:href="#bbburst-shape-8" width="35.27125171323466" opacity="0.1872569433182547" transform="matrix(0.8973080307055579,0.4414049139184039,-0.4414049139184039,0.8973080307055579,912.50709592159,124.43389003012953)" fill="none" stroke="#2c2891"></use><use xlink:href="#bbburst-shape-10" width="22.693208373290734" opacity="0.6509198545075382" transform="matrix(0.9791637205460978,0.20307242148140955,-0.20307242148140955,0.9791637205460978,281.6721752398052,128.3576572806561)" fill="none" stroke="#ffa6d5"></use><use xlink:href="#bbburst-shape-4" width="14.033743585436428" opacity="0.8684743099223285" transform="matrix(0.8444622484490422,-0.535615077219068,0.535615077219068,0.8444622484490422,-111.0439508913096,392.5561990140447)" fill="#ffbd9b"></use><use xlink:href="#bbburst-shape-8" width="37.47852264559952" opacity="0.2360761905348262" transform="matrix(0.9994995854588783,-0.031631924815453225,0.031631924815453225,0.9994995854588783,37.29153345557333,-360.03783492168117)" fill="none" stroke="#00a19d"></use><use xlink:href="#bbburst-shape-1" width="10.28692250748772" opacity="0.9421966707972564" transform="matrix(0.985056661924782,-0.1722305803207017,0.1722305803207017,0.985056661924782,-36.90308257342488,362.5111087177793)" fill="#2c2891"></use><use xlink:href="#bbburst-shape-6" width="11.222793284474017" opacity="0.9064017157419101" transform="matrix(0.9527319863847673,0.3038120506486463,-0.3038120506486463,0.9527319863847673,203.18417913839028,382.69642224213055)" fill="#ffa6d5"></use><use xlink:href="#bbburst-shape-8" width="5.818253331051668" opacity="0.973752761690001" transform="matrix(0.9460765665188365,-0.3239430972932276,0.3239430972932276,0.9460765665188365,-123.11863934397877,397.93377261332586)" fill="none" stroke="#ffa6d5"></use><use xlink:href="#bbburst-shape-11" width="30.325288937004004" opacity="0.52389579139894" transform="matrix(0.990383069951441,-0.13835235723889608,0.13835235723889608,0.990383069951441,185.6338602033756,4.165179171190687)" fill="none" stroke="#2c2891"></use><use xlink:href="#bbburst-shape-1" width="30.942247788089944" opacity="0.3577933454947031" transform="matrix(0.903094597842736,-0.429441669318741,0.429441669318741,0.903094597842736,88.22603853452785,-135.3992719412582)" fill="#ffa6d5"></use><use xlink:href="#bbburst-shape-6" width="10.232679464031662" opacity="0.8161029764029342" transform="matrix(0.876056123671481,-0.4822091539754288,0.4822091539754288,0.876056123671481,-179.71953057935585,268.9963758925808)" fill="#ffa6d5"></use><use xlink:href="#bbburst-shape-8" width="36.869231943316464" opacity="0.1547025310143686" transform="matrix(0.9314425152918012,0.3638885003773583,-0.3638885003773583,0.9314425152918012,522.0131191399529,-327.33890210567125)" fill="none" stroke="#00a19d"></use><use xlink:href="#bbburst-shape-14" width="28.141172302345343" opacity="0.22516607787839937" transform="matrix(0.8482639748843609,0.5295736293598695,-0.5295736293598695,0.8482639748843609,964.4667155486324,327.71585501164185)" fill="none" stroke="#2c2891"></use><use xlink:href="#bbburst-shape-6" width="24.436952775616973" opacity="0.5265913302506773" transform="matrix(0.9757986992511888,-0.2186707537364979,0.2186707537364979,0.9757986992511888,372.6823591021599,376.82127943334626)" fill="#2c2891"></use><use xlink:href="#bbburst-shape-1" width="23.4575188997852" opacity="0.7276961786336038" transform="matrix(0.7267366102367774,0.6869162243982583,-0.6869162243982583,0.7267366102367774,448.04346992784815,298.563158011684)" fill="#2c2891"></use><use xlink:href="#bbburst-shape-12" width="15.260094073950556" opacity="0.7098511247300241" transform="matrix(0.8368333870938041,0.5474576533807081,-0.5474576533807081,0.8368333870938041,294.16614431964865,182.61443563712993)" fill="none" stroke="#00a19d"></use><use xlink:href="#bbburst-shape-9" width="50.4199862538929" opacity="0.20562056371721849" transform="matrix(0.8122001883223999,0.5833788255405385,-0.5833788255405385,0.8122001883223999,891.2239190266155,46.432042083314855)" fill="none" stroke="#ffa6d5"></use><use xlink:href="#bbburst-shape-4" width="27.864017394260173" opacity="0.5494826316176653" transform="matrix(0.8194889710884196,0.5730949539687499,-0.5730949539687499,0.8194889710884196,638.4704775418371,302.9721249059775)" fill="#ff5c58"></use><use xlink:href="#bbburst-shape-1" width="18.733354159856994" opacity="0.6521935442902278" transform="matrix(0.9591769941872731,0.2828064600073129,-0.2828064600073129,0.9591769941872731,446.6975372506352,353.5552839535309)" fill="#00a19d"></use><use xlink:href="#bbburst-shape-12" width="16.103102498948857" opacity="0.8453030847835971" transform="matrix(0.9614550556738252,0.2749621354282109,-0.2749621354282109,0.9614550556738252,245.69304551356947,355.24761194227125)" fill="none" stroke="#ffbd9b"></use><use xlink:href="#bbburst-shape-12" width="33.73094442031221" opacity="0.20954782750935208" transform="matrix(0.7516918782416591,-0.659514457904849,0.659514457904849,0.7516918782416591,-49.30698059962273,-246.69093536605004)" fill="none" stroke="#ffbd9b"></use><use xlink:href="#bbburst-shape-14" width="16.8710638149378" opacity="0.790838114618531" transform="matrix(0.7979608166241899,-0.6027093288911795,0.6027093288911795,0.7979608166241899,-164.04894730348056,294.25623905908736)" fill="none" stroke="#ffa6d5"></use><use xlink:href="#bbburst-shape-14" width="13.623173979676551" opacity="0.7922551229346511" transform="matrix(0.7840499536295075,0.6206977285390749,-0.6206977285390749,0.7840499536295075,449.6552623238329,461.6391126701602)" fill="none" stroke="#2c2891"></use><use xlink:href="#bbburst-shape-10" width="40.75781515909808" opacity="0.08711330903469261" transform="matrix(0.9690749586778014,0.2467665383791281,-0.2467665383791281,0.9690749586778014,827.8278285060884,-114.7277673343213)" fill="none" stroke="#ff5c58"></use><use xlink:href="#bbburst-shape-4" width="62.559198132798464" opacity="0.08699931929279747" transform="matrix(0.8035166661451715,-0.5952822584513577,0.5952822584513577,0.8035166661451715,292.58659768579963,-227.07304444279953)" fill="#ffbd9b"></use><use xlink:href="#bbburst-shape-9" width="23.146994188589318" opacity="0.5920187205672383" transform="matrix(0.9884977525487043,0.1512355553636795,-0.1512355553636795,0.9884977525487043,272.1766038333239,61.11839051936033)" fill="none" stroke="#00a19d"></use><use xlink:href="#bbburst-shape-8" width="29.08727928052721" opacity="0.30258814857717176" transform="matrix(0.8144477900236352,0.5802368458876226,-0.5802368458876226,0.8144477900236352,317.24417206616516,-224.85190636193158)" fill="none" stroke="#ff5c58"></use><use xlink:href="#bbburst-shape-12" width="15.004476728303466" opacity="0.7272826152660352" transform="matrix(0.8880069466923396,-0.45983003667240824,0.45983003667240824,0.8880069466923396,81.07677613636332,424.4967165526493)" fill="none" stroke="#00a19d"></use><use xlink:href="#bbburst-shape-6" width="44.74815119440283" opacity="0.2959332024385215" transform="matrix(0.8920878651055184,-0.45186197110564463,0.45186197110564463,0.8920878651055184,356.2473717862058,22.560814689630263)" fill="#2c2891"></use><use xlink:href="#bbburst-shape-6" width="7.096622157405882" opacity="0.9211916716352201" transform="matrix(0.9304774306801231,0.36634922000042086,-0.36634922000042086,0.9304774306801231,155.45636500353731,348.6537665887471)" fill="#00a19d"></use><use xlink:href="#bbburst-shape-10" width="16.930370414445193" opacity="0.7543344521004485" transform="matrix(0.9558301612066079,0.29391955179564017,-0.29391955179564017,0.9558301612066079,298.6311066272291,258.4249230634756)" fill="none" stroke="#ff5c58"></use><use xlink:href="#bbburst-shape-9" width="11.986362271981129" opacity="0.767318975960074" transform="matrix(0.890063009313495,-0.4558375143094359,0.4558375143094359,0.890063009313495,-167.50036122565396,214.8327695427638)" fill="none" stroke="#2c2891"></use><use xlink:href="#bbburst-shape-14" width="11.463779011004824" opacity="0.8577025987915003" transform="matrix(0.9983019399588648,0.0582514950397586,-0.0582514950397586,0.9983019399588648,93.97948740879067,280.31377225704665)" fill="none" stroke="#ffa6d5"></use><use xlink:href="#bbburst-shape-12" width="49.580612447019405" opacity="0.3984028822316271" transform="matrix(0.9888628590626964,0.1488295869991912,-0.1488295869991912,0.9888628590626964,550.8468275917749,91.07499431574058)" fill="none" stroke="#ffa6d5"></use><use xlink:href="#bbburst-shape-1" width="7.541696926692071" opacity="0.9269100064739344" transform="matrix(0.7236114053125148,0.6902076021760754,-0.6902076021760754,0.7236114053125148,305.4718438274424,442.3077900374347)" fill="#ffa6d5"></use><use xlink:href="#bbburst-shape-1" width="9.09269740292245" opacity="0.9018360685539883" transform="matrix(0.9996433526930011,-0.026705194563910045,0.026705194563910045,0.9996433526930011,0.27140701567200765,303.34295987189194)" fill="#2c2891"></use><use xlink:href="#bbburst-shape-12" width="21.925611780181583" opacity="0.6596498780938207" transform="matrix(0.7394116320652799,-0.6732536211314122,0.6732536211314122,0.7394116320652799,-163.46145224653108,190.88685776492588)" fill="none" stroke="#ffbd9b"></use><use xlink:href="#bbburst-shape-9" width="15.70675740003454" opacity="0.7043725364251443" transform="matrix(0.9554883309464804,0.29502889591548337,-0.29502889591548337,0.9554883309464804,125.42330211499174,120.13399545242868)" fill="none" stroke="#00a19d"></use><use xlink:href="#bbburst-shape-11" width="21.270671734263527" opacity="0.6257160259770694" transform="matrix(0.71836151792766,0.6956699861002114,-0.6956699861002114,0.71836151792766,298.2128830106698,131.77966704405577)" fill="none" stroke="#2c2891"></use><use xlink:href="#bbburst-shape-10" width="30.958722215461837" opacity="0.45372099329066795" transform="matrix(0.7154230319580189,-0.6986915523634126,0.6986915523634126,0.7154230319580189,-129.0091048742348,2.79839952169408)" fill="none" stroke="#ffa6d5"></use><use xlink:href="#bbburst-shape-1" width="15.757104153737888" opacity="0.8186472958083622" transform="matrix(0.9240396234043237,-0.38229670987179015,0.38229670987179015,0.9240396234043237,15.154177097048347,387.1237396043039)" fill="#ffbd9b"></use><use xlink:href="#bbburst-shape-10" width="18.663676653989892" opacity="0.5752789621819396" transform="matrix(0.8247024992750573,0.5655667844644644,-0.5655667844644644,0.8247024992750573,252.50621226078943,41.48129160885156)" fill="none" stroke="#ffa6d5"></use><use xlink:href="#bbburst-shape-12" width="23.422248623398133" opacity="0.597027718641855" transform="matrix(0.9244641300349061,0.3812690287432278,-0.3812690287432278,0.9244641300349061,293.29638764854826,52.341084856757504)" fill="none" stroke="#ffa6d5"></use><use xlink:href="#bbburst-shape-4" width="65.88116986604149" opacity="0.14288573637285296" transform="matrix(0.9892942804338405,-0.14593432324470415,0.14593432324470415,0.9892942804338405,540.982149573557,-169.90471456178014)" fill="#2c2891"></use><use xlink:href="#bbburst-shape-4" width="13.182952897425443" opacity="0.8075969959391933" transform="matrix(0.9917817013970185,-0.12794161470778437,0.12794161470778437,0.9917817013970185,45.787363654454325,241.94910546602688)" fill="#2c2891"></use><use xlink:href="#bbburst-shape-4" width="33.921500932345765" opacity="0.5190933952639718" transform="matrix(0.9885173127146222,0.1511076519024166,-0.1511076519024166,0.9885173127146222,458.93295236669366,159.512043875789)" fill="#ffa6d5"></use><use xlink:href="#bbburst-shape-8" width="17.66603322634254" opacity="0.6369390739033833" transform="matrix(0.9674366369610967,-0.25311332139064335,0.25311332139064335,0.9674366369610967,252.60735081290142,393.33186456499834)" fill="none" stroke="#ffa6d5"></use><use xlink:href="#bbburst-shape-8" width="18.63608944577858" opacity="0.658490237614177" transform="matrix(0.7374088023040358,0.6754467101737394,-0.6754467101737394,0.7374088023040358,333.2185417118544,164.46526284962823)" fill="none" stroke="#ffa6d5"></use><use xlink:href="#bbburst-shape-4" width="8.9985317312703" opacity="0.8382894391986331" transform="matrix(0.9280887412893506,-0.3723590851475882,0.3723590851475882,0.9280887412893506,-133.80443202763385,269.8941455528168)" fill="#ffa6d5"></use><use xlink:href="#bbburst-shape-9" width="24.640114350103982" opacity="0.5742950976847214" transform="matrix(0.7941403650895908,0.6077343832097797,-0.6077343832097797,0.7941403650895908,573.5996093837606,218.80224689811007)" fill="none" stroke="#2c2891"></use><use xlink:href="#bbburst-shape-4" width="8.662332499295603" opacity="0.8592090549003654" transform="matrix(0.8197652279210494,0.572699721574535,-0.572699721574535,0.8197652279210494,237.89269528962467,329.37323730579953)" fill="#ffa6d5"></use><use xlink:href="#bbburst-shape-6" width="5.683953785532438" opacity="0.9571132408984254" transform="matrix(0.906131436601387,0.4229962406484326,-0.4229962406484326,0.906131436601387,179.16833659411623,395.33443427987237)" fill="#2c2891"></use><use xlink:href="#bbburst-shape-11" width="10.064430223421727" opacity="0.8824365057399622" transform="matrix(0.8604792541247545,-0.50948547891074,0.50948547891074,0.8604792541247545,-163.19758003924693,349.6473441213829)" fill="none" stroke="#ffa6d5"></use><use xlink:href="#bbburst-shape-9" width="61.42312078684086" opacity="0.24229140139982797" transform="matrix(0.999946166753929,-0.010376106886674404,0.010376106886674404,0.999946166753929,469.00526656501523,-165.9690964114517)" fill="none" stroke="#00a19d"></use><use xlink:href="#bbburst-shape-12" width="31.68779786148961" opacity="0.4599411913273689" transform="matrix(0.9766415199971107,0.21487517636463577,-0.21487517636463577,0.9766415199971107,565.1561377533151,189.1629487538733)" fill="none" stroke="#00a19d"></use><use xlink:href="#bbburst-shape-8" width="20.93908276592849" opacity="0.5329331795121525" transform="matrix(0.8453097395151976,0.5342765616052689,-0.5342765616052689,0.8453097395151976,661.540242193617,358.3277355253772)" fill="none" stroke="#00a19d"></use><use xlink:href="#bbburst-shape-10" width="16.03793363667221" opacity="0.7439352253108495" transform="matrix(0.7653277837796283,0.6436407253856475,-0.6436407253856475,0.7653277837796283,496.4871528277264,414.8033936701573)" fill="none" stroke="#ffbd9b"></use><use xlink:href="#bbburst-shape-14" width="29.27291298138303" opacity="0.6042077705555534" transform="matrix(0.83765765633387,0.5461956158605158,-0.5461956158605158,0.83765765633387,295.00302975932823,71.27524359120457)" fill="none" stroke="#ff5c58"></use><use xlink:href="#bbburst-shape-14" width="45.69883473091764" opacity="0.47085968822905555" transform="matrix(0.8792581724279415,0.47634553238030514,-0.47634553238030514,0.8792581724279415,582.4454119983426,105.46816015450548)" fill="none" stroke="#00a19d"></use><use xlink:href="#bbburst-shape-8" width="13.708711063992403" opacity="0.8528355951832409" transform="matrix(0.9658440353745562,0.25912410025196997,-0.25912410025196997,0.9658440353745562,242.90548422839402,392.45607518122364)" fill="none" stroke="#00a19d"></use><use xlink:href="#bbburst-shape-9" width="66.11813531050642" opacity="-0.01609468771634104" transform="matrix(0.9969372926034294,-0.07820508050340563,0.07820508050340563,0.9969372926034294,659.0574871195473,-310.24369933797004)" fill="none" stroke="#2c2891"></use><use xlink:href="#bbburst-shape-9" width="30.761682358530365" opacity="0.44240427034383367" transform="matrix(0.8853335375758633,-0.46495647887023506,0.46495647887023506,0.8853335375758633,349.9482456585596,359.0047620846513)" fill="none" stroke="#2c2891"></use><use xlink:href="#bbburst-shape-4" width="13.366259298674036" opacity="0.8856189495467923" transform="matrix(0.9984559933443392,-0.055548441515211246,0.055548441515211246,0.9984559933443392,44.63359705031516,313.3820242880769)" fill="#2c2891"></use><use xlink:href="#bbburst-shape-6" width="22.890658878352717" opacity="0.5853105007780743" transform="matrix(0.9995867393199623,0.028746314123477675,-0.028746314123477675,0.9995867393199623,414.0413420758941,375.64794222217165)" fill="#00a19d"></use><use xlink:href="#bbburst-shape-4" width="15.961433432906283" opacity="0.7048729217218187" transform="matrix(0.9694680167696403,0.24521778985371415,-0.24521778985371415,0.9694680167696403,376.88339676124696,339.5831863748297)" fill="#2c2891"></use><use xlink:href="#bbburst-shape-6" width="25.973307820718723" opacity="0.4546850478479254" transform="matrix(0.9998736196227076,0.015897949005612103,-0.015897949005612103,0.9998736196227076,537.9963399796894,372.3655921694658)" fill="#00a19d"></use><use xlink:href="#bbburst-shape-1" width="14.305431030578816" opacity="0.8574419169218568" transform="matrix(0.8934357327308607,-0.4491910411836706,0.4491910411836706,0.8934357327308607,-143.8015519272388,309.7039094584339)" fill="#ffa6d5"></use><use xlink:href="#bbburst-shape-6" width="36.305251348143116" opacity="0.4449433455424676" transform="matrix(0.8653728324843382,-0.5011285870892157,0.5011285870892157,0.8653728324843382,43.06277429748229,-27.858873726123022)" fill="#ffa6d5"></use><use xlink:href="#bbburst-shape-14" width="11.960839193520783" opacity="0.8974414722394498" transform="matrix(0.7659167956614428,0.6429397033343855,-0.6429397033343855,0.7659167956614428,336.1397694582175,430.32917782544604)" fill="none" stroke="#2c2891"></use><use xlink:href="#bbburst-shape-8" width="16.468851162481585" opacity="0.6871298711254572" transform="matrix(0.9861215167414432,-0.16602516140499765,0.16602516140499765,0.9861215167414432,237.54586428227344,384.64237478951605)" fill="none" stroke="#00a19d"></use><use xlink:href="#bbburst-shape-14" width="10.691363952949658" opacity="0.9041922054601895" transform="matrix(0.9999967947374603,0.002531899446222025,-0.002531899446222025,0.9999967947374603,39.913029748167574,315.0232236624737)" fill="none" stroke="#00a19d"></use><use xlink:href="#bbburst-shape-10" width="9.742812243871997" opacity="0.8810485323024244" transform="matrix(0.9937556241252421,0.11157849039779341,-0.11157849039779341,0.9937556241252421,54.48698897300492,283.91411892504493)" fill="none" stroke="#ffbd9b"></use><use xlink:href="#bbburst-shape-14" width="20.50529552653662" opacity="0.5923241946283231" transform="matrix(0.8638098629795495,-0.5038179439234493,0.5038179439234493,0.8638098629795495,190.40637221201644,384.97799644830747)" fill="none" stroke="#2c2891"></use><use xlink:href="#bbburst-shape-10" width="29.03177493135761" opacity="0.3737201004660826" transform="matrix(0.9165641876389335,-0.3998875966290801,0.3998875966290801,0.9165641876389335,-134.3082580904986,-185.8883752904262)" fill="none" stroke="#ffbd9b"></use><use xlink:href="#bbburst-shape-14" width="45.42759976506055" opacity="0.24567151463696524" transform="matrix(0.9937946882982204,0.11123002072391697,-0.11123002072391697,0.9937946882982204,419.15506271710314,-241.23963311541982)" fill="none" stroke="#ffa6d5"></use><use xlink:href="#bbburst-shape-8" width="19.80914722604198" opacity="0.7076268354519633" transform="matrix(0.7204948845438088,0.6934602521747036,-0.6934602521747036,0.7204948845438088,390.50648029092395,238.4379558964116)" fill="none" stroke="#2c2891"></use><use xlink:href="#bbburst-shape-10" width="11.841593542746459" opacity="0.7422573029935545" transform="matrix(0.9792188485693896,-0.20280642644265237,0.20280642644265237,0.9792188485693896,-39.31799622923694,156.20450077803332)" fill="none" stroke="#ffbd9b"></use><use xlink:href="#bbburst-shape-12" width="31.602535277755948" opacity="0.5270889020023511" transform="matrix(0.9998751139164108,-0.015803688513905588,0.015803688513905588,0.9998751139164108,161.51095021714372,-35.560249876102034)" fill="none" stroke="#ff5c58"></use><use xlink:href="#bbburst-shape-6" width="19.16146060658473" opacity="0.6705305813264053" transform="matrix(0.9384857041301258,0.34531808980037804,-0.34531808980037804,0.9384857041301258,428.2067865400087,283.0708082597978)" fill="#2c2891"></use><use xlink:href="#bbburst-shape-1" width="33.746102075392365" opacity="0.2760061825867397" transform="matrix(0.8612924402963574,0.5081095672080438,-0.5081095672080438,0.8612924402963574,888.1600928432795,260.11196414038824)" fill="#ffa6d5"></use><use xlink:href="#bbburst-shape-12" width="12.083951930029409" opacity="0.7609305335658224" transform="matrix(0.7908421731133697,-0.6120201444603952,0.6120201444603952,0.7908421731133697,-11.811049694624558,462.6302752930506)" fill="none" stroke="#ffa6d5"></use><use xlink:href="#bbburst-shape-6" width="29.13775135126931" opacity="0.6509419154744823" transform="matrix(0.9562369571790517,0.2925933726606747,-0.2925933726606747,0.9562369571790517,390.3931745146724,214.98134702715947)" fill="#ff5c58"></use><use xlink:href="#bbburst-shape-9" width="16.28578557469012" opacity="0.7811638833913549" transform="matrix(0.941081179237852,0.3381807417407058,-0.3381807417407058,0.941081179237852,336.83920287617536,356.4642360924319)" fill="none" stroke="#00a19d"></use><use xlink:href="#bbburst-shape-14" width="32.25426146505927" opacity="0.3667935715794909" transform="matrix(0.9399313949050654,0.341363402947384,-0.341363402947384,0.9399313949050654,751.2828100538197,354.04316050244705)" fill="none" stroke="#00a19d"></use><use xlink:href="#bbburst-shape-10" width="9.584924062101148" opacity="0.9066858173186296" transform="matrix(0.9957760893535931,-0.09181492183553341,0.09181492183553341,0.9957760893535931,51.105235052921195,390.63423061197636)" fill="none" stroke="#00a19d"></use><use xlink:href="#bbburst-shape-12" width="7.14352861038177" opacity="0.9880316872478387" transform="matrix(0.9952580538564658,-0.09726976012019399,0.09726976012019399,0.9952580538564658,-33.70679623049655,394.07338817197075)" fill="none" stroke="#2c2891"></use><use xlink:href="#bbburst-shape-14" width="26.884673909816758" opacity="0.6055327812857688" transform="matrix(0.9973775851854975,0.0723737008142161,-0.0723737008142161,0.9973775851854975,366.20429101630856,219.45030353562527)" fill="none" stroke="#2c2891"></use><use xlink:href="#bbburst-shape-12" width="33.32266168030961" opacity="0.45179038240168" transform="matrix(0.9013643077626865,-0.4330616407527835,0.4330616407527835,0.9013643077626865,-127.02543616539958,-98.162713162112)" fill="none" stroke="#ffa6d5"></use><use xlink:href="#bbburst-shape-8" width="7.633951309424203" opacity="0.9410600423238702" transform="matrix(0.8160007313100056,0.5780508684376626,-0.5780508684376626,0.8160007313100056,238.82501503086218,413.43629392565055)" fill="none" stroke="#ffbd9b"></use><use xlink:href="#bbburst-shape-10" width="38.58729737074338" opacity="0.45312055899403425" transform="matrix(0.8073981894568449,-0.590006918316903,0.590006918316903,0.8073981894568449,89.89858983698792,61.25996946758977)" fill="none" stroke="#00a19d"></use><use xlink:href="#bbburst-shape-8" width="34.16480938771689" opacity="0.5335505793744741" transform="matrix(0.74563146162065,-0.6663585547146921,0.6663585547146921,0.74563146162065,-172.64020647304568,59.03473617295748)" fill="none" stroke="#2c2891"></use><use xlink:href="#bbburst-shape-10" width="13.290627685030266" opacity="0.8340706187316631" transform="matrix(0.8227405268479867,0.5684171227909107,-0.5684171227909107,0.8227405268479867,358.7820878677296,373.341017077426)" fill="none" stroke="#ffa6d5"></use><use xlink:href="#bbburst-shape-14" width="13.535574727382539" opacity="0.8234980467028505" transform="matrix(0.8950109149993456,-0.44604423775230423,0.44604423775230423,0.8950109149993456,-8.513401831772143,431.12596861439835)" fill="none" stroke="#00a19d"></use><use xlink:href="#bbburst-shape-12" width="15.58143155994775" opacity="0.7604945178691367" transform="matrix(0.997946068019552,0.06405970125059705,-0.06405970125059705,0.997946068019552,151.57160960562703,201.59438602895608)" fill="none" stroke="#2c2891"></use><use xlink:href="#bbburst-shape-12" width="24.95032253331717" opacity="0.47484974327714324" transform="matrix(0.9999722795609033,-0.007445811558903059,0.007445811558903059,0.9999722795609033,489.5328697151229,255.93530773410794)" fill="none" stroke="#ffa6d5"></use><use xlink:href="#bbburst-shape-14" width="15.231228147182634" opacity="0.7373497328703815" transform="matrix(0.8726661181758046,0.48831736216109756,-0.48831736216109756,0.8726661181758046,204.4415574456024,185.05630865069304)" fill="none" stroke="#00a19d"></use><use xlink:href="#bbburst-shape-14" width="17.36541939467527" opacity="0.6676424888503287" transform="matrix(0.9336740473406179,0.3581239636251526,-0.3581239636251526,0.9336740473406179,157.45536067070998,91.83567967778401)" fill="none" stroke="#ffa6d5"></use><use xlink:href="#bbburst-shape-10" width="17.118578076677256" opacity="0.7036225578200401" transform="matrix(0.9985846254180967,-0.05318595565184078,0.05318595565184078,0.9985846254180967,133.48109643338907,153.69199261754477)" fill="none" stroke="#ffa6d5"></use><use xlink:href="#bbburst-shape-4" width="26.227766959256893" opacity="0.6121917501306979" transform="matrix(0.9884124911537888,-0.15179178940628302,0.15179178940628302,0.9884124911537888,295.5148533358207,287.9308530396419)" fill="#ffa6d5"></use><use xlink:href="#bbburst-shape-8" width="50.27186786365765" opacity="0.3517779365327327" transform="matrix(0.9831218339183379,-0.18295206933250072,0.18295206933250072,0.9831218339183379,280.5933652608943,-114.90120803359383)" fill="none" stroke="#00a19d"></use><use xlink:href="#bbburst-shape-4" width="16.036790192696273" opacity="0.7182561038907309" transform="matrix(0.7102652672771649,-0.7039341234090712,0.7039341234090712,0.7102652672771649,-33.03069098989923,400.10819204055844)" fill="#2c2891"></use><use xlink:href="#bbburst-shape-4" width="7.672391065778285" opacity="0.9515638083399816" transform="matrix(0.9134615227726443,0.40692511155479455,-0.40692511155479455,0.9134615227726443,206.08591685162287,420.6640490727368)" fill="#2c2891"></use><use xlink:href="#bbburst-shape-4" width="17.613974454760044" opacity="0.7827856420683554" transform="matrix(0.7267208327524556,0.6869329161159606,-0.6869329161159606,0.7267208327524556,414.0819070130815,342.1903484048791)" fill="#ffa6d5"></use><use xlink:href="#bbburst-shape-10" width="8.87047100836392" opacity="0.9302707236008325" transform="matrix(0.999276476334124,-0.038033193992314265,0.038033193992314265,0.999276476334124,40.17407017606114,364.62773799848884)" fill="none" stroke="#00a19d"></use><use xlink:href="#bbburst-shape-6" width="28.939185762301307" opacity="0.273064617966737" transform="matrix(0.8111332358617493,0.5848614140806758,-0.5848614140806758,0.8111332358617493,947.9418934619156,425.3135550950906)" fill="#00a19d"></use><use xlink:href="#bbburst-shape-14" width="12.023604137775923" opacity="0.8349521454484297" transform="matrix(0.740583278599535,-0.671964587949963,0.671964587949963,0.740583278599535,-200.77527220533239,359.5230615306205)" fill="none" stroke="#ffa6d5"></use><use xlink:href="#bbburst-shape-12" width="16.604659746722575" opacity="0.7888669098060443" transform="matrix(0.9311684506444659,0.3645892435664894,-0.3645892435664894,0.9311684506444659,185.93209891313455,218.83042486678318)" fill="none" stroke="#ff5c58"></use><use xlink:href="#bbburst-shape-10" width="12.24127104497297" opacity="0.821519465817768" transform="matrix(0.7168059228770413,-0.6972727364011826,0.6972727364011826,0.7168059228770413,-231.94397380631705,346.6119909111297)" fill="none" stroke="#ffa6d5"></use><use xlink:href="#bbburst-shape-10" width="24.457640697302935" opacity="0.6780109439632469" transform="matrix(0.9993915904878624,0.034877626956841795,-0.034877626956841795,0.9993915904878624,233.01883361935057,175.80282450087998)" fill="none" stroke="#2c2891"></use><use xlink:href="#bbburst-shape-10" width="23.172510447143278" opacity="0.6117258848233104" transform="matrix(0.9559590147355502,-0.29350019104906216,0.29350019104906216,0.9559590147355502,144.755906270288,145.15271394354568)" fill="none" stroke="#ffa6d5"></use><use xlink:href="#bbburst-shape-12" width="27.077112592385177" opacity="0.5152175087533397" transform="matrix(0.8547143032441619,0.5190986995069886,-0.5190986995069886,0.8547143032441619,230.5298006379611,-32.51335648370491)" fill="none" stroke="#ff5c58"></use><use xlink:href="#bbburst-shape-10" width="6.865975274370043" opacity="0.971759910675725" transform="matrix(0.9574778996960515,-0.28850662313652015,0.28850662313652015,0.9574778996960515,-91.7008283106127,409.6863070297328)" fill="none" stroke="#2c2891"></use><use xlink:href="#bbburst-shape-4" width="49.960172447126226" opacity="0.3790695136334874" transform="matrix(0.9022135861821423,-0.431289514025507,0.431289514025507,0.9022135861821423,251.6567753038725,18.626158063836158)" fill="#ff5c58"></use><use xlink:href="#bbburst-shape-1" width="14.722644260718969" opacity="0.8052780817063236" transform="matrix(0.9577075833820996,0.2877432618366915,-0.2877432618366915,0.9577075833820996,283.4304999975499,330.2270410369593)" fill="#00a19d"></use><use xlink:href="#bbburst-shape-10" width="18.6615694827466" opacity="0.7616241807745531" transform="matrix(0.9999771000151042,-0.006767528750008909,0.006767528750008909,0.9999771000151042,197.35561764275604,286.1534200265185)" fill="none" stroke="#00a19d"></use><use xlink:href="#bbburst-shape-10" width="46.07301889665276" opacity="0.36845522318345125" transform="matrix(0.8901237580010901,-0.455718877644998,0.455718877644998,0.8901237580010901,-48.304121371620084,-157.90909495465775)" fill="none" stroke="#2c2891"></use><use xlink:href="#bbburst-shape-10" width="17.669394961525075" opacity="0.7106736058733159" transform="matrix(0.7791691367186322,-0.6268137334050216,0.6268137334050216,0.7791691367186322,-22.603692113188373,325.10345807853207)" fill="none" stroke="#00a19d"></use><use xlink:href="#bbburst-shape-6" width="15.808383627792761" opacity="0.7496004088238418" transform="matrix(0.9065868618872446,-0.42201926715902216,0.42201926715902216,0.9065868618872446,-66.46740860415498,215.51594033295703)" fill="#2c2891"></use><use xlink:href="#bbburst-shape-9" width="32.8989122015227" opacity="0.5351313399831071" transform="matrix(0.7495783016995909,-0.6619156816552673,0.6619156816552673,0.7495783016995909,41.53270969189879,172.53458616680228)" fill="none" stroke="#2c2891"></use><use xlink:href="#bbburst-shape-6" width="21.583499717296952" opacity="0.6510872922206397" transform="matrix(0.9993083055145172,0.03718750502123531,-0.03718750502123531,0.9993083055145172,167.68241343417992,91.69086778249664)" fill="#2c2891"></use><use xlink:href="#bbburst-shape-8" width="9.417668431953153" opacity="0.8807678726424416" transform="matrix(0.9533793835468971,0.3017743379211334,-0.3017743379211334,0.9533793835468971,234.60420576236257,403.0292972007977)" fill="none" stroke="#ffa6d5"></use><use xlink:href="#bbburst-shape-6" width="17.780738529864944" opacity="0.7964035488845556" transform="matrix(0.9990771586514801,-0.04295149660821362,0.04295149660821362,0.9990771586514801,136.83985724095626,278.6272352587585)" fill="#00a19d"></use><use xlink:href="#bbburst-shape-1" width="46.743202207156266" opacity="0.3808287638100605" transform="matrix(0.9877041134138108,-0.15633484686862964,0.15633484686862964,0.9877041134138108,506.0619586971128,226.15207250211006)" fill="#ffa6d5"></use><use xlink:href="#bbburst-shape-14" width="18.75184295932465" opacity="0.6629497869282117" transform="matrix(0.9727231110849178,0.23196928495229416,-0.23196928495229416,0.9727231110849178,405.96963748716496,310.16826335849106)" fill="none" stroke="#ffa6d5"></use><use xlink:href="#bbburst-shape-6" width="15.614139390083064" opacity="0.7014026332757068" transform="matrix(0.9618975767763849,-0.27341004332635416,0.27341004332635416,0.9618975767763849,-68.34349997341472,122.74839869121905)" fill="#2c2891"></use><use xlink:href="#bbburst-shape-14" width="14.384230251770301" opacity="0.8556103914161742" transform="matrix(0.7625777502738652,0.6468965719396343,-0.6468965719396343,0.7625777502738652,354.5270360367027,387.4057019245653)" fill="none" stroke="#00a19d"></use></svg>